<svg width="20" height="20" viewBox="0 0 20 20" fill="none" xmlns="http://www.w3.org/2000/svg">
<path d="M18.6875 3.51562H15.4375V1.5625C15.4375 0.700684 14.7088 0 13.8125 0H5.6875C4.79121 0 4.0625 0.700684 4.0625 1.5625V3.51562H0.8125C0.363086 3.51562 0 3.86475 0 4.29687V5.07812C0 5.18555 0.0914062 5.27344 0.203125 5.27344H1.73672L2.36387 18.042C2.40449 18.8745 3.12051 19.5312 3.98633 19.5312H15.5137C16.382 19.5312 17.0955 18.877 17.1361 18.042L17.7633 5.27344H19.2969C19.4086 5.27344 19.5 5.18555 19.5 5.07812V4.29687C19.5 3.86475 19.1369 3.51562 18.6875 3.51562ZM13.6094 3.51562H5.89062V1.75781H13.6094V3.51562Z" fill="black"/>
</svg>
