<svg width="26" height="25" viewBox="0 0 26 25" fill="none" xmlns="http://www.w3.org/2000/svg">
<rect x="0.5" y="0.5" width="25" height="24" rx="2.5" fill="white"/>
<path d="M21.9375 6.08705H18.6875V4.13393C18.6875 3.27211 17.9588 2.57143 17.0625 2.57143H8.9375C8.04121 2.57143 7.3125 3.27211 7.3125 4.13393V6.08705H4.0625C3.61309 6.08705 3.25 6.43617 3.25 6.8683V7.64955C3.25 7.75697 3.34141 7.84486 3.45312 7.84486H4.98672L5.61387 20.6134C5.65449 21.4459 6.37051 22.1027 7.23633 22.1027H18.7637C19.632 22.1027 20.3455 21.4484 20.3861 20.6134L21.0133 7.84486H22.5469C22.6586 7.84486 22.75 7.75697 22.75 7.64955V6.8683C22.75 6.43617 22.3869 6.08705 21.9375 6.08705ZM16.8594 6.08705H9.14062V4.32924H16.8594V6.08705Z" fill="black"/>
<rect x="0.5" y="0.5" width="25" height="24" rx="2.5" stroke="black"/>
</svg>
