<svg width="22" height="21" viewBox="0 0 22 21" fill="none" xmlns="http://www.w3.org/2000/svg">
<g filter="url(#filter0_d_594_232)">
<rect width="22" height="20" rx="3" fill="white"/>
<path d="M18.5625 4.71729H15.8125V3.15479C15.8125 2.46533 15.1959 1.90479 14.4375 1.90479H7.5625C6.8041 1.90479 6.1875 2.46533 6.1875 3.15479V4.71729H3.4375C3.05723 4.71729 2.75 4.99658 2.75 5.34229V5.96729C2.75 6.05322 2.82734 6.12354 2.92187 6.12354H4.21953L4.7502 16.3384C4.78457 17.0044 5.39043 17.5298 6.12305 17.5298H15.877C16.6117 17.5298 17.2154 17.0063 17.2498 16.3384L17.7805 6.12354H19.0781C19.1727 6.12354 19.25 6.05322 19.25 5.96729V5.34229C19.25 4.99658 18.9428 4.71729 18.5625 4.71729ZM14.2656 4.71729H7.73437V3.31104H14.2656V4.71729Z" fill="black"/>
<rect x="0.5" y="0.5" width="21" height="19" rx="2.5" stroke="black"/>
</g>
<defs>
<filter id="filter0_d_594_232" x="0" y="0" width="22" height="21" filterUnits="userSpaceOnUse" color-interpolation-filters="sRGB">
<feFlood flood-opacity="0" result="BackgroundImageFix"/>
<feColorMatrix in="SourceAlpha" type="matrix" values="0 0 0 0 0 0 0 0 0 0 0 0 0 0 0 0 0 0 127 0" result="hardAlpha"/>
<feOffset dy="1"/>
<feComposite in2="hardAlpha" operator="out"/>
<feColorMatrix type="matrix" values="0 0 0 0 0 0 0 0 0 0 0 0 0 0 0 0 0 0 0.5 0"/>
<feBlend mode="normal" in2="BackgroundImageFix" result="effect1_dropShadow_594_232"/>
<feBlend mode="normal" in="SourceGraphic" in2="effect1_dropShadow_594_232" result="shape"/>
</filter>
</defs>
</svg>
