<svg width="42" height="38" viewBox="0 0 42 38" fill="none" xmlns="http://www.w3.org/2000/svg">
<path d="M1.96875 10.6875L12.4688 1.1875V7.125H40.0312V14.25H12.4688V20.1875L1.96875 10.6875ZM9.1875 27.5179C9.1875 25.441 7.42088 23.75 5.25 23.75H1.3125V36.8125H5.25C7.42088 36.8125 9.1875 35.1215 9.1875 33.0434C9.1875 31.9509 8.69663 30.97 7.917 30.2812C8.32185 29.9207 8.64283 29.4904 8.86103 29.0158C9.07923 28.5412 9.19023 28.0319 9.1875 27.5179V27.5179ZM5.25 34.8038H3.36328V31.2853H5.25C6.33544 31.2853 7.21875 32.0738 7.21875 33.0434C7.21875 34.013 6.33544 34.8038 5.25 34.8038V34.8038ZM5.25 29.2772H3.36328V25.7587H5.25C6.33544 25.7587 7.21875 26.5483 7.21875 27.5179C7.21875 28.4875 6.33544 29.2772 5.25 29.2772ZM26.25 34.8038C25.1646 34.8038 24.2812 34.013 24.2812 33.0434V27.5173C24.2812 26.5478 25.1646 25.7581 26.25 25.7581C27.3354 25.7581 28.2188 26.5478 28.2188 27.5173H30.1875C30.1875 25.441 28.4209 23.75 26.25 23.75C24.0791 23.75 22.3125 25.441 22.3125 27.5179V33.044C22.3125 35.1221 24.0791 36.8131 26.25 36.8131C28.4209 36.8131 30.1875 35.1221 30.1875 33.044H28.2188C28.2188 34.013 27.3354 34.8038 26.25 34.8038V34.8038ZM40.6875 23.75H38.619L36.0688 29.3906H34.7812V23.75H32.8125V36.8125H34.7812V31.1719H36.0688L38.619 36.8125H40.6875L37.7843 30.2812L40.6875 23.75ZM17.7188 36.8125H19.6875L17.0625 23.75H13.7812L11.8125 36.8125H13.7812L14.3233 33.215H16.9956L17.7188 36.8125ZM14.6258 31.2069L15.4685 25.6162L16.592 31.2069H14.6258Z" fill="black"/>
</svg>
