<svg width="18" height="18" viewBox="0 0 18 18" fill="none" xmlns="http://www.w3.org/2000/svg">
<path d="M17.699 7.44403L15.556 5.30099C15.3627 5.10824 15.1009 5 14.828 5C14.555 5 14.2932 5.10824 14.1 5.30099L5 14.4036V18H8.59644L17.699 8.90003C17.8918 8.70677 18 8.44497 18 8.17203C18 7.89909 17.8918 7.63728 17.699 7.44403ZM8.05759 16.7H6.3V14.9424L12.436 8.80578L14.1942 10.5634L8.05759 16.7ZM15.114 9.64427L13.3564 7.88668L14.8299 6.41313L16.5875 8.17073L15.114 9.64427Z" fill="#5C5042" fill-opacity="0.980392"/>
<path d="M5.875 10H7.125V5.33333H9V4H4V5.33333H5.875V10Z" fill="#5C5042" fill-opacity="0.980392"/>
<path d="M3.9 11.7H1.3V1.3H11.7V3.9H13V1.3C13 0.955218 12.863 0.624558 12.6192 0.380761C12.3754 0.136964 12.0448 0 11.7 0H1.3C0.955218 0 0.624558 0.136964 0.380761 0.380761C0.136964 0.624558 0 0.955218 0 1.3V11.7C0 12.0448 0.136964 12.3754 0.380761 12.6192C0.624558 12.863 0.955218 13 1.3 13H3.9V11.7Z" fill="#5C5042" fill-opacity="0.980392"/>
</svg>
