<svg width="42" height="32" viewBox="0 0 42 32" fill="none" xmlns="http://www.w3.org/2000/svg">
<path fill-rule="evenodd" clip-rule="evenodd" d="M17.5 2.66668C17.5003 2.38861 17.3865 2.11742 17.1746 1.89106C16.9626 1.66471 16.663 1.49451 16.3178 1.40429C15.9726 1.31407 15.599 1.30834 15.2493 1.3879C14.8996 1.46746 14.5913 1.62834 14.3675 1.84801L2.11749 13.848C1.87852 14.0821 1.74878 14.3701 1.74878 14.6667C1.74878 14.9632 1.87852 15.2513 2.11749 15.4853L14.3675 27.4853C14.5913 27.705 14.8996 27.8659 15.2493 27.9455C15.599 28.025 15.9726 28.0193 16.3178 27.9291C16.663 27.8388 16.9626 27.6687 17.1746 27.4423C17.3865 27.2159 17.5003 26.9447 17.5 26.6667V21.3467C26.9132 21.496 31.4352 22.8573 33.7067 24.3373C35.8662 25.744 36.2617 27.3987 36.673 29.132L36.7797 29.5787C36.8583 29.8983 37.0874 30.185 37.424 30.3849C37.7606 30.5848 38.1815 30.6841 38.6074 30.6641C39.0334 30.6442 39.4351 30.5063 39.737 30.2764C40.0388 30.0465 40.22 29.7406 40.2465 29.416C40.5457 25.752 40.096 20.4427 36.6992 16.0013C33.4022 11.6907 27.4645 8.37601 17.5 8.02934V2.66668Z" fill="black"/>
</svg>
